<?xml version="1.0" encoding="UTF-8" standalone="no"?>
<!DOCTYPE svg PUBLIC "-//W3C//DTD SVG 1.1//EN"
 "http://www.w3.org/Graphics/SVG/1.1/DTD/svg11.dtd">
<!-- Generated by graphviz version 2.43.0 (0)
 -->
<!-- Title: %3 Pages: 1 -->
<svg width="5512pt" height="566pt"
 viewBox="0.00 0.00 5512.48 566.00" xmlns="http://www.w3.org/2000/svg" xmlns:xlink="http://www.w3.org/1999/xlink">
<g id="graph0" class="graph" transform="scale(1 1) rotate(0) translate(4 562)">
<title>%3</title>
<polygon fill="white" stroke="transparent" points="-4,4 -4,-562 5508.48,-562 5508.48,4 -4,4"/>
<!-- 0 -->
<g id="node1" class="node">
<title>0</title>
<ellipse fill="none" stroke="black" cx="3908.94" cy="-540" rx="98.58" ry="18"/>
<text text-anchor="middle" x="3908.94" y="-536.3" font-family="Times,serif" font-size="14.00">sofa&lt;0.897949398</text>
</g>
<!-- 1 -->
<g id="node2" class="node">
<title>1</title>
<ellipse fill="none" stroke="black" cx="3540.94" cy="-453" rx="107.78" ry="18"/>
<text text-anchor="middle" x="3540.94" y="-449.3" font-family="Times,serif" font-size="14.00">egfr&lt;&#45;0.0358842723</text>
</g>
<!-- 0&#45;&gt;1 -->
<g id="edge1" class="edge">
<title>0&#45;&gt;1</title>
<path fill="none" stroke="#ff0000" d="M3850.22,-525.44C3785.24,-510.43 3680.54,-486.25 3611.24,-470.24"/>
<polygon fill="#ff0000" stroke="#ff0000" points="3611.81,-466.78 3601.28,-467.94 3610.24,-473.6 3611.81,-466.78"/>
<text text-anchor="middle" x="3760.44" y="-492.8" font-family="Times,serif" font-size="14.00">yes</text>
</g>
<!-- 2 -->
<g id="node3" class="node">
<title>2</title>
<ellipse fill="none" stroke="black" cx="4430.94" cy="-453" rx="131.08" ry="18"/>
<text text-anchor="middle" x="4430.94" y="-449.3" font-family="Times,serif" font-size="14.00">phosphate&lt;&#45;0.690945804</text>
</g>
<!-- 0&#45;&gt;2 -->
<g id="edge2" class="edge">
<title>0&#45;&gt;2</title>
<path fill="none" stroke="#0000ff" d="M3979.88,-527.45C4073.23,-512.25 4237.4,-485.51 4339.84,-468.83"/>
<polygon fill="#0000ff" stroke="#0000ff" points="4340.55,-472.26 4349.86,-467.2 4339.43,-465.36 4340.55,-472.26"/>
<text text-anchor="middle" x="4242.94" y="-492.8" font-family="Times,serif" font-size="14.00">no, missing</text>
</g>
<!-- 3 -->
<g id="node4" class="node">
<title>3</title>
<ellipse fill="none" stroke="black" cx="1075.94" cy="-366" rx="106.68" ry="18"/>
<text text-anchor="middle" x="1075.94" y="-362.3" font-family="Times,serif" font-size="14.00">oasis&lt;&#45;0.402673632</text>
</g>
<!-- 1&#45;&gt;3 -->
<g id="edge3" class="edge">
<title>1&#45;&gt;3</title>
<path fill="none" stroke="#ff0000" d="M3436.6,-448.4C3036.86,-434.62 1604.67,-385.23 1189.49,-370.92"/>
<polygon fill="#ff0000" stroke="#ff0000" points="1189.4,-367.41 1179.28,-370.56 1189.15,-374.41 1189.4,-367.41"/>
<text text-anchor="middle" x="2469.44" y="-405.8" font-family="Times,serif" font-size="14.00">yes</text>
</g>
<!-- 4 -->
<g id="node5" class="node">
<title>4</title>
<ellipse fill="none" stroke="black" cx="3540.94" cy="-366" rx="105.88" ry="18"/>
<text text-anchor="middle" x="3540.94" y="-362.3" font-family="Times,serif" font-size="14.00">weight&lt;1.36427855</text>
</g>
<!-- 1&#45;&gt;4 -->
<g id="edge4" class="edge">
<title>1&#45;&gt;4</title>
<path fill="none" stroke="#0000ff" d="M3540.94,-434.8C3540.94,-423.16 3540.94,-407.55 3540.94,-394.24"/>
<polygon fill="#0000ff" stroke="#0000ff" points="3544.44,-394.18 3540.94,-384.18 3537.44,-394.18 3544.44,-394.18"/>
<text text-anchor="middle" x="3581.94" y="-405.8" font-family="Times,serif" font-size="14.00">no, missing</text>
</g>
<!-- 5 -->
<g id="node46" class="node">
<title>5</title>
<ellipse fill="none" stroke="black" cx="4430.94" cy="-366" rx="96.68" ry="18"/>
<text text-anchor="middle" x="4430.94" y="-362.3" font-family="Times,serif" font-size="14.00">age&lt;0.714033723</text>
</g>
<!-- 2&#45;&gt;5 -->
<g id="edge45" class="edge">
<title>2&#45;&gt;5</title>
<path fill="none" stroke="#ff0000" d="M4430.94,-434.8C4430.94,-423.16 4430.94,-407.55 4430.94,-394.24"/>
<polygon fill="#ff0000" stroke="#ff0000" points="4434.44,-394.18 4430.94,-384.18 4427.44,-394.18 4434.44,-394.18"/>
<text text-anchor="middle" x="4443.44" y="-405.8" font-family="Times,serif" font-size="14.00">yes</text>
</g>
<!-- 6 -->
<g id="node47" class="node">
<title>6</title>
<ellipse fill="none" stroke="black" cx="4775.94" cy="-366" rx="103.18" ry="18"/>
<text text-anchor="middle" x="4775.94" y="-362.3" font-family="Times,serif" font-size="14.00">oasis&lt;0.432363868</text>
</g>
<!-- 2&#45;&gt;6 -->
<g id="edge46" class="edge">
<title>2&#45;&gt;6</title>
<path fill="none" stroke="#0000ff" d="M4491.83,-437C4552.7,-422 4646.06,-399 4708.99,-383.5"/>
<polygon fill="#0000ff" stroke="#0000ff" points="4709.94,-386.87 4718.81,-381.07 4708.27,-380.07 4709.94,-386.87"/>
<text text-anchor="middle" x="4665.94" y="-405.8" font-family="Times,serif" font-size="14.00">no, missing</text>
</g>
<!-- 7 -->
<g id="node6" class="node">
<title>7</title>
<ellipse fill="none" stroke="black" cx="661.94" cy="-279" rx="93.68" ry="18"/>
<text text-anchor="middle" x="661.94" y="-275.3" font-family="Times,serif" font-size="14.00">mch&lt;1.13772345</text>
</g>
<!-- 3&#45;&gt;7 -->
<g id="edge5" class="edge">
<title>3&#45;&gt;7</title>
<path fill="none" stroke="#ff0000" d="M1010.8,-351.63C935.4,-336.14 811.61,-310.73 733.56,-294.7"/>
<polygon fill="#ff0000" stroke="#ff0000" points="733.83,-291.19 723.33,-292.6 732.42,-298.04 733.83,-291.19"/>
<text text-anchor="middle" x="906.44" y="-318.8" font-family="Times,serif" font-size="14.00">yes</text>
</g>
<!-- 8 -->
<g id="node7" class="node">
<title>8</title>
<ellipse fill="none" stroke="black" cx="1075.94" cy="-279" rx="115.88" ry="18"/>
<text text-anchor="middle" x="1075.94" y="-275.3" font-family="Times,serif" font-size="14.00">calcium&lt;0.374622732</text>
</g>
<!-- 3&#45;&gt;8 -->
<g id="edge6" class="edge">
<title>3&#45;&gt;8</title>
<path fill="none" stroke="#0000ff" d="M1075.94,-347.8C1075.94,-336.16 1075.94,-320.55 1075.94,-307.24"/>
<polygon fill="#0000ff" stroke="#0000ff" points="1079.44,-307.18 1075.94,-297.18 1072.44,-307.18 1079.44,-307.18"/>
<text text-anchor="middle" x="1116.94" y="-318.8" font-family="Times,serif" font-size="14.00">no, missing</text>
</g>
<!-- 9 -->
<g id="node26" class="node">
<title>9</title>
<ellipse fill="none" stroke="black" cx="3379.94" cy="-279" rx="92.08" ry="18"/>
<text text-anchor="middle" x="3379.94" y="-275.3" font-family="Times,serif" font-size="14.00">rdw&lt;0.14554368</text>
</g>
<!-- 4&#45;&gt;9 -->
<g id="edge25" class="edge">
<title>4&#45;&gt;9</title>
<path fill="none" stroke="#ff0000" d="M3509.9,-348.61C3484.12,-335 3447.29,-315.56 3419.42,-300.84"/>
<polygon fill="#ff0000" stroke="#ff0000" points="3420.82,-297.62 3410.34,-296.05 3417.55,-303.81 3420.82,-297.62"/>
<text text-anchor="middle" x="3483.44" y="-318.8" font-family="Times,serif" font-size="14.00">yes</text>
</g>
<!-- 10 -->
<g id="node27" class="node">
<title>10</title>
<ellipse fill="none" stroke="black" cx="3728.94" cy="-279" rx="131.08" ry="18"/>
<text text-anchor="middle" x="3728.94" y="-275.3" font-family="Times,serif" font-size="14.00">phosphate&lt;&#45;0.337177724</text>
</g>
<!-- 4&#45;&gt;10 -->
<g id="edge26" class="edge">
<title>4&#45;&gt;10</title>
<path fill="none" stroke="#0000ff" d="M3576.3,-349.01C3606.6,-335.31 3650.44,-315.49 3683.37,-300.6"/>
<polygon fill="#0000ff" stroke="#0000ff" points="3685.11,-303.66 3692.78,-296.35 3682.22,-297.28 3685.11,-303.66"/>
<text text-anchor="middle" x="3687.94" y="-318.8" font-family="Times,serif" font-size="14.00">no, missing</text>
</g>
<!-- 15 -->
<g id="node8" class="node">
<title>15</title>
<ellipse fill="none" stroke="black" cx="341.94" cy="-192" rx="124.28" ry="18"/>
<text text-anchor="middle" x="341.94" y="-188.3" font-family="Times,serif" font-size="14.00">congestive_heart_failure</text>
</g>
<!-- 7&#45;&gt;15 -->
<g id="edge7" class="edge">
<title>7&#45;&gt;15</title>
<path fill="none" stroke="#ff0000" d="M609.46,-264.06C554.53,-249.47 468.15,-226.52 408.48,-210.67"/>
<polygon fill="#ff0000" stroke="#ff0000" points="409.33,-207.28 398.77,-208.1 407.54,-214.05 409.33,-207.28"/>
<text text-anchor="middle" x="534.44" y="-231.8" font-family="Times,serif" font-size="14.00">yes</text>
</g>
<!-- 16 -->
<g id="node9" class="node">
<title>16</title>
<ellipse fill="none" stroke="black" cx="661.94" cy="-192" rx="108.58" ry="18"/>
<text text-anchor="middle" x="661.94" y="-188.3" font-family="Times,serif" font-size="14.00">leaf=0.00464657228</text>
</g>
<!-- 7&#45;&gt;16 -->
<g id="edge8" class="edge">
<title>7&#45;&gt;16</title>
<path fill="none" stroke="#0000ff" d="M661.94,-260.8C661.94,-249.16 661.94,-233.55 661.94,-220.24"/>
<polygon fill="#0000ff" stroke="#0000ff" points="665.44,-220.18 661.94,-210.18 658.44,-220.18 665.44,-220.18"/>
<text text-anchor="middle" x="702.94" y="-231.8" font-family="Times,serif" font-size="14.00">no, missing</text>
</g>
<!-- 17 -->
<g id="node12" class="node">
<title>17</title>
<ellipse fill="none" stroke="black" cx="905.94" cy="-192" rx="102.88" ry="18"/>
<text text-anchor="middle" x="905.94" y="-188.3" font-family="Times,serif" font-size="14.00">mch&lt;&#45;0.762988329</text>
</g>
<!-- 8&#45;&gt;17 -->
<g id="edge11" class="edge">
<title>8&#45;&gt;17</title>
<path fill="none" stroke="#ff0000" d="M1043.16,-261.61C1015.91,-247.99 976.97,-228.51 947.53,-213.79"/>
<polygon fill="#ff0000" stroke="#ff0000" points="948.84,-210.54 938.33,-209.19 945.71,-216.8 948.84,-210.54"/>
<text text-anchor="middle" x="1014.44" y="-231.8" font-family="Times,serif" font-size="14.00">yes</text>
</g>
<!-- 18 -->
<g id="node13" class="node">
<title>18</title>
<ellipse fill="none" stroke="black" cx="1334.94" cy="-192" rx="96.68" ry="18"/>
<text text-anchor="middle" x="1334.94" y="-188.3" font-family="Times,serif" font-size="14.00">sbp&lt;0.699169576</text>
</g>
<!-- 8&#45;&gt;18 -->
<g id="edge12" class="edge">
<title>8&#45;&gt;18</title>
<path fill="none" stroke="#0000ff" d="M1123.14,-262.51C1167.28,-248.02 1233.19,-226.39 1279.74,-211.12"/>
<polygon fill="#0000ff" stroke="#0000ff" points="1280.96,-214.4 1289.37,-207.96 1278.77,-207.75 1280.96,-214.4"/>
<text text-anchor="middle" x="1262.94" y="-231.8" font-family="Times,serif" font-size="14.00">no, missing</text>
</g>
<!-- 29 -->
<g id="node10" class="node">
<title>29</title>
<ellipse fill="none" stroke="black" cx="105.94" cy="-105" rx="105.88" ry="18"/>
<text text-anchor="middle" x="105.94" y="-101.3" font-family="Times,serif" font-size="14.00">leaf=&#45;0.0133384364</text>
</g>
<!-- 15&#45;&gt;29 -->
<g id="edge9" class="edge">
<title>15&#45;&gt;29</title>
<path fill="none" stroke="#ff0000" d="M297.83,-175.11C258.34,-160.89 200.39,-140.02 158.52,-124.94"/>
<polygon fill="#ff0000" stroke="#ff0000" points="159.63,-121.62 149.04,-121.52 157.26,-128.2 159.63,-121.62"/>
<text text-anchor="middle" x="251.44" y="-144.8" font-family="Times,serif" font-size="14.00">yes</text>
</g>
<!-- 30 -->
<g id="node11" class="node">
<title>30</title>
<ellipse fill="none" stroke="black" cx="341.94" cy="-105" rx="111.58" ry="18"/>
<text text-anchor="middle" x="341.94" y="-101.3" font-family="Times,serif" font-size="14.00">leaf=&#45;0.00392711861</text>
</g>
<!-- 15&#45;&gt;30 -->
<g id="edge10" class="edge">
<title>15&#45;&gt;30</title>
<path fill="none" stroke="#0000ff" d="M341.94,-173.8C341.94,-162.16 341.94,-146.55 341.94,-133.24"/>
<polygon fill="#0000ff" stroke="#0000ff" points="345.44,-133.18 341.94,-123.18 338.44,-133.18 345.44,-133.18"/>
<text text-anchor="middle" x="382.94" y="-144.8" font-family="Times,serif" font-size="14.00">no, missing</text>
</g>
<!-- 31 -->
<g id="node14" class="node">
<title>31</title>
<ellipse fill="none" stroke="black" cx="608.94" cy="-105" rx="137.28" ry="18"/>
<text text-anchor="middle" x="608.94" y="-101.3" font-family="Times,serif" font-size="14.00">phosphate&lt;&#45;0.0718516782</text>
</g>
<!-- 17&#45;&gt;31 -->
<g id="edge13" class="edge">
<title>17&#45;&gt;31</title>
<path fill="none" stroke="#ff0000" d="M854.55,-176.29C804.22,-161.89 727.39,-139.9 673.09,-124.36"/>
<polygon fill="#ff0000" stroke="#ff0000" points="673.8,-120.92 663.22,-121.53 671.87,-127.65 673.8,-120.92"/>
<text text-anchor="middle" x="788.44" y="-144.8" font-family="Times,serif" font-size="14.00">yes</text>
</g>
<!-- 32 -->
<g id="node15" class="node">
<title>32</title>
<ellipse fill="none" stroke="black" cx="905.94" cy="-105" rx="89.08" ry="18"/>
<text text-anchor="middle" x="905.94" y="-101.3" font-family="Times,serif" font-size="14.00">hb&lt;&#45;1.05913329</text>
</g>
<!-- 17&#45;&gt;32 -->
<g id="edge14" class="edge">
<title>17&#45;&gt;32</title>
<path fill="none" stroke="#0000ff" d="M905.94,-173.8C905.94,-162.16 905.94,-146.55 905.94,-133.24"/>
<polygon fill="#0000ff" stroke="#0000ff" points="909.44,-133.18 905.94,-123.18 902.44,-133.18 909.44,-133.18"/>
<text text-anchor="middle" x="946.94" y="-144.8" font-family="Times,serif" font-size="14.00">no, missing</text>
</g>
<!-- 33 -->
<g id="node20" class="node">
<title>33</title>
<ellipse fill="none" stroke="black" cx="1334.94" cy="-105" rx="96.68" ry="18"/>
<text text-anchor="middle" x="1334.94" y="-101.3" font-family="Times,serif" font-size="14.00">age&lt;0.309139878</text>
</g>
<!-- 18&#45;&gt;33 -->
<g id="edge19" class="edge">
<title>18&#45;&gt;33</title>
<path fill="none" stroke="#0000ff" d="M1334.94,-173.8C1334.94,-162.16 1334.94,-146.55 1334.94,-133.24"/>
<polygon fill="#0000ff" stroke="#0000ff" points="1338.44,-133.18 1334.94,-123.18 1331.44,-133.18 1338.44,-133.18"/>
<text text-anchor="middle" x="1379.44" y="-144.8" font-family="Times,serif" font-size="14.00">yes, missing</text>
</g>
<!-- 34 -->
<g id="node21" class="node">
<title>34</title>
<ellipse fill="none" stroke="black" cx="1710.94" cy="-105" rx="90.18" ry="18"/>
<text text-anchor="middle" x="1710.94" y="-101.3" font-family="Times,serif" font-size="14.00">hr&lt;0.100017808</text>
</g>
<!-- 18&#45;&gt;34 -->
<g id="edge20" class="edge">
<title>18&#45;&gt;34</title>
<path fill="none" stroke="#ff0000" d="M1394.1,-177.63C1461.81,-162.32 1572.48,-137.3 1643.48,-121.25"/>
<polygon fill="#ff0000" stroke="#ff0000" points="1644.68,-124.57 1653.66,-118.95 1643.14,-117.74 1644.68,-124.57"/>
<text text-anchor="middle" x="1554.94" y="-144.8" font-family="Times,serif" font-size="14.00">no</text>
</g>
<!-- 45 -->
<g id="node16" class="node">
<title>45</title>
<ellipse fill="none" stroke="black" cx="323.94" cy="-18" rx="117.78" ry="18"/>
<text text-anchor="middle" x="323.94" y="-14.3" font-family="Times,serif" font-size="14.00">leaf=&#45;0.000491052691</text>
</g>
<!-- 31&#45;&gt;45 -->
<g id="edge15" class="edge">
<title>31&#45;&gt;45</title>
<path fill="none" stroke="#ff0000" d="M556.34,-88.31C507.83,-73.84 435.84,-52.37 384.86,-37.17"/>
<polygon fill="#ff0000" stroke="#ff0000" points="385.86,-33.82 375.28,-34.31 383.86,-40.52 385.86,-33.82"/>
<text text-anchor="middle" x="496.44" y="-57.8" font-family="Times,serif" font-size="14.00">yes</text>
</g>
<!-- 46 -->
<g id="node17" class="node">
<title>46</title>
<ellipse fill="none" stroke="black" cx="555.94" cy="-18" rx="96.68" ry="18"/>
<text text-anchor="middle" x="555.94" y="-14.3" font-family="Times,serif" font-size="14.00">leaf=0.016620554</text>
</g>
<!-- 31&#45;&gt;46 -->
<g id="edge16" class="edge">
<title>31&#45;&gt;46</title>
<path fill="none" stroke="#0000ff" d="M598.22,-86.8C590.67,-74.7 580.45,-58.3 571.94,-44.67"/>
<polygon fill="#0000ff" stroke="#0000ff" points="574.91,-42.81 566.65,-36.18 568.97,-46.51 574.91,-42.81"/>
<text text-anchor="middle" x="626.94" y="-57.8" font-family="Times,serif" font-size="14.00">no, missing</text>
</g>
<!-- 47 -->
<g id="node18" class="node">
<title>47</title>
<ellipse fill="none" stroke="black" cx="778.94" cy="-18" rx="108.58" ry="18"/>
<text text-anchor="middle" x="778.94" y="-14.3" font-family="Times,serif" font-size="14.00">leaf=0.00604761625</text>
</g>
<!-- 32&#45;&gt;47 -->
<g id="edge17" class="edge">
<title>32&#45;&gt;47</title>
<path fill="none" stroke="#ff0000" d="M881.45,-87.61C861.81,-74.47 834.05,-55.88 812.36,-41.37"/>
<polygon fill="#ff0000" stroke="#ff0000" points="814.04,-38.28 803.79,-35.63 810.15,-44.1 814.04,-38.28"/>
<text text-anchor="middle" x="863.44" y="-57.8" font-family="Times,serif" font-size="14.00">yes</text>
</g>
<!-- 48 -->
<g id="node19" class="node">
<title>48</title>
<ellipse fill="none" stroke="black" cx="1010.94" cy="-18" rx="105.88" ry="18"/>
<text text-anchor="middle" x="1010.94" y="-14.3" font-family="Times,serif" font-size="14.00">leaf=&#45;0.0093620671</text>
</g>
<!-- 32&#45;&gt;48 -->
<g id="edge18" class="edge">
<title>32&#45;&gt;48</title>
<path fill="none" stroke="#0000ff" d="M926.43,-87.41C942.23,-74.62 964.28,-56.77 981.89,-42.51"/>
<polygon fill="#0000ff" stroke="#0000ff" points="984.57,-44.85 990.14,-35.84 980.16,-39.41 984.57,-44.85"/>
<text text-anchor="middle" x="1005.94" y="-57.8" font-family="Times,serif" font-size="14.00">no, missing</text>
</g>
<!-- 49 -->
<g id="node22" class="node">
<title>49</title>
<ellipse fill="none" stroke="black" cx="1246.94" cy="-18" rx="111.58" ry="18"/>
<text text-anchor="middle" x="1246.94" y="-14.3" font-family="Times,serif" font-size="14.00">leaf=&#45;0.00170533278</text>
</g>
<!-- 33&#45;&gt;49 -->
<g id="edge21" class="edge">
<title>33&#45;&gt;49</title>
<path fill="none" stroke="#ff0000" d="M1317.55,-87.21C1304.5,-74.6 1286.45,-57.16 1271.86,-43.07"/>
<polygon fill="#ff0000" stroke="#ff0000" points="1274.22,-40.48 1264.59,-36.05 1269.35,-45.51 1274.22,-40.48"/>
<text text-anchor="middle" x="1309.44" y="-57.8" font-family="Times,serif" font-size="14.00">yes</text>
</g>
<!-- 50 -->
<g id="node23" class="node">
<title>50</title>
<ellipse fill="none" stroke="black" cx="1478.94" cy="-18" rx="102.88" ry="18"/>
<text text-anchor="middle" x="1478.94" y="-14.3" font-family="Times,serif" font-size="14.00">leaf=0.0187713113</text>
</g>
<!-- 33&#45;&gt;50 -->
<g id="edge22" class="edge">
<title>33&#45;&gt;50</title>
<path fill="none" stroke="#0000ff" d="M1362.71,-87.61C1385.42,-74.21 1417.71,-55.14 1442.5,-40.51"/>
<polygon fill="#0000ff" stroke="#0000ff" points="1444.43,-43.44 1451.26,-35.34 1440.87,-37.41 1444.43,-43.44"/>
<text text-anchor="middle" x="1456.94" y="-57.8" font-family="Times,serif" font-size="14.00">no, missing</text>
</g>
<!-- 51 -->
<g id="node24" class="node">
<title>51</title>
<ellipse fill="none" stroke="black" cx="1710.94" cy="-18" rx="111.58" ry="18"/>
<text text-anchor="middle" x="1710.94" y="-14.3" font-family="Times,serif" font-size="14.00">leaf=&#45;0.00967918523</text>
</g>
<!-- 34&#45;&gt;51 -->
<g id="edge23" class="edge">
<title>34&#45;&gt;51</title>
<path fill="none" stroke="#ff0000" d="M1710.94,-86.8C1710.94,-75.16 1710.94,-59.55 1710.94,-46.24"/>
<polygon fill="#ff0000" stroke="#ff0000" points="1714.44,-46.18 1710.94,-36.18 1707.44,-46.18 1714.44,-46.18"/>
<text text-anchor="middle" x="1723.44" y="-57.8" font-family="Times,serif" font-size="14.00">yes</text>
</g>
<!-- 52 -->
<g id="node25" class="node">
<title>52</title>
<ellipse fill="none" stroke="black" cx="1948.94" cy="-18" rx="108.58" ry="18"/>
<text text-anchor="middle" x="1948.94" y="-14.3" font-family="Times,serif" font-size="14.00">leaf=0.00835181866</text>
</g>
<!-- 34&#45;&gt;52 -->
<g id="edge24" class="edge">
<title>34&#45;&gt;52</title>
<path fill="none" stroke="#0000ff" d="M1752.94,-89C1792.77,-74.78 1852.75,-53.35 1895.87,-37.95"/>
<polygon fill="#0000ff" stroke="#0000ff" points="1897.11,-41.23 1905.35,-34.57 1894.75,-34.64 1897.11,-41.23"/>
<text text-anchor="middle" x="1885.94" y="-57.8" font-family="Times,serif" font-size="14.00">no, missing</text>
</g>
<!-- 19 -->
<g id="node28" class="node">
<title>19</title>
<ellipse fill="none" stroke="black" cx="2794.94" cy="-192" rx="92.88" ry="18"/>
<text text-anchor="middle" x="2794.94" y="-188.3" font-family="Times,serif" font-size="14.00">hr&lt;&#45;0.599420249</text>
</g>
<!-- 9&#45;&gt;19 -->
<g id="edge27" class="edge">
<title>9&#45;&gt;19</title>
<path fill="none" stroke="#0000ff" d="M3308.21,-267.58C3199.07,-251.72 2991.9,-221.62 2876.95,-204.92"/>
<polygon fill="#0000ff" stroke="#0000ff" points="2877.2,-201.42 2866.8,-203.44 2876.19,-208.34 2877.2,-201.42"/>
<text text-anchor="middle" x="3167.44" y="-231.8" font-family="Times,serif" font-size="14.00">yes, missing</text>
</g>
<!-- 20 -->
<g id="node29" class="node">
<title>20</title>
<ellipse fill="none" stroke="black" cx="3379.94" cy="-192" rx="92.88" ry="18"/>
<text text-anchor="middle" x="3379.94" y="-188.3" font-family="Times,serif" font-size="14.00">wbc&lt;1.07821941</text>
</g>
<!-- 9&#45;&gt;20 -->
<g id="edge28" class="edge">
<title>9&#45;&gt;20</title>
<path fill="none" stroke="#ff0000" d="M3379.94,-260.8C3379.94,-249.16 3379.94,-233.55 3379.94,-220.24"/>
<polygon fill="#ff0000" stroke="#ff0000" points="3383.44,-220.18 3379.94,-210.18 3376.44,-220.18 3383.44,-220.18"/>
<text text-anchor="middle" x="3388.94" y="-231.8" font-family="Times,serif" font-size="14.00">no</text>
</g>
<!-- 21 -->
<g id="node42" class="node">
<title>21</title>
<ellipse fill="none" stroke="black" cx="3728.94" cy="-192" rx="137.58" ry="18"/>
<text text-anchor="middle" x="3728.94" y="-188.3" font-family="Times,serif" font-size="14.00">bicarbonate&lt;&#45;0.359777153</text>
</g>
<!-- 10&#45;&gt;21 -->
<g id="edge41" class="edge">
<title>10&#45;&gt;21</title>
<path fill="none" stroke="#ff0000" d="M3728.94,-260.8C3728.94,-249.16 3728.94,-233.55 3728.94,-220.24"/>
<polygon fill="#ff0000" stroke="#ff0000" points="3732.44,-220.18 3728.94,-210.18 3725.44,-220.18 3732.44,-220.18"/>
<text text-anchor="middle" x="3741.44" y="-231.8" font-family="Times,serif" font-size="14.00">yes</text>
</g>
<!-- 22 -->
<g id="node43" class="node">
<title>22</title>
<ellipse fill="none" stroke="black" cx="3986.94" cy="-192" rx="102.88" ry="18"/>
<text text-anchor="middle" x="3986.94" y="-188.3" font-family="Times,serif" font-size="14.00">leaf=0.0141087426</text>
</g>
<!-- 10&#45;&gt;22 -->
<g id="edge42" class="edge">
<title>10&#45;&gt;22</title>
<path fill="none" stroke="#0000ff" d="M3776.86,-262.21C3820.67,-247.78 3885.46,-226.43 3931.49,-211.27"/>
<polygon fill="#0000ff" stroke="#0000ff" points="3932.61,-214.59 3941.01,-208.13 3930.42,-207.94 3932.61,-214.59"/>
<text text-anchor="middle" x="3914.94" y="-231.8" font-family="Times,serif" font-size="14.00">no, missing</text>
</g>
<!-- 35 -->
<g id="node30" class="node">
<title>35</title>
<ellipse fill="none" stroke="black" cx="2421.94" cy="-105" rx="118.08" ry="18"/>
<text text-anchor="middle" x="2421.94" y="-101.3" font-family="Times,serif" font-size="14.00">calcium&lt;&#45;0.684716284</text>
</g>
<!-- 19&#45;&gt;35 -->
<g id="edge29" class="edge">
<title>19&#45;&gt;35</title>
<path fill="none" stroke="#ff0000" d="M2737.07,-177.81C2671.7,-162.91 2565.21,-138.65 2494.37,-122.51"/>
<polygon fill="#ff0000" stroke="#ff0000" points="2495.15,-119.09 2484.62,-120.28 2493.6,-125.92 2495.15,-119.09"/>
<text text-anchor="middle" x="2643.44" y="-144.8" font-family="Times,serif" font-size="14.00">yes</text>
</g>
<!-- 36 -->
<g id="node31" class="node">
<title>36</title>
<ellipse fill="none" stroke="black" cx="2794.94" cy="-105" rx="131.88" ry="18"/>
<text text-anchor="middle" x="2794.94" y="-101.3" font-family="Times,serif" font-size="14.00">bicarbonate&lt;&#45;1.67363465</text>
</g>
<!-- 19&#45;&gt;36 -->
<g id="edge30" class="edge">
<title>19&#45;&gt;36</title>
<path fill="none" stroke="#0000ff" d="M2794.94,-173.8C2794.94,-162.16 2794.94,-146.55 2794.94,-133.24"/>
<polygon fill="#0000ff" stroke="#0000ff" points="2798.44,-133.18 2794.94,-123.18 2791.44,-133.18 2798.44,-133.18"/>
<text text-anchor="middle" x="2835.94" y="-144.8" font-family="Times,serif" font-size="14.00">no, missing</text>
</g>
<!-- 37 -->
<g id="node36" class="node">
<title>37</title>
<ellipse fill="none" stroke="black" cx="3304.94" cy="-105" rx="108.58" ry="18"/>
<text text-anchor="middle" x="3304.94" y="-101.3" font-family="Times,serif" font-size="14.00">mch&lt;&#45;0.0319453329</text>
</g>
<!-- 20&#45;&gt;37 -->
<g id="edge35" class="edge">
<title>20&#45;&gt;37</title>
<path fill="none" stroke="#ff0000" d="M3365.12,-174.21C3354.2,-161.83 3339.17,-144.8 3326.86,-130.85"/>
<polygon fill="#ff0000" stroke="#ff0000" points="3329.22,-128.23 3319.98,-123.05 3323.98,-132.86 3329.22,-128.23"/>
<text text-anchor="middle" x="3359.44" y="-144.8" font-family="Times,serif" font-size="14.00">yes</text>
</g>
<!-- 38 -->
<g id="node37" class="node">
<title>38</title>
<ellipse fill="none" stroke="black" cx="3527.94" cy="-105" rx="96.68" ry="18"/>
<text text-anchor="middle" x="3527.94" y="-101.3" font-family="Times,serif" font-size="14.00">age&lt;0.077771984</text>
</g>
<!-- 20&#45;&gt;38 -->
<g id="edge36" class="edge">
<title>20&#45;&gt;38</title>
<path fill="none" stroke="#0000ff" d="M3408.13,-174.81C3431.61,-161.33 3465.24,-142.01 3490.9,-127.28"/>
<polygon fill="#0000ff" stroke="#0000ff" points="3492.68,-130.29 3499.61,-122.27 3489.19,-124.22 3492.68,-130.29"/>
<text text-anchor="middle" x="3503.94" y="-144.8" font-family="Times,serif" font-size="14.00">no, missing</text>
</g>
<!-- 53 -->
<g id="node32" class="node">
<title>53</title>
<ellipse fill="none" stroke="black" cx="2183.94" cy="-18" rx="108.58" ry="18"/>
<text text-anchor="middle" x="2183.94" y="-14.3" font-family="Times,serif" font-size="14.00">leaf=0.00835181866</text>
</g>
<!-- 35&#45;&gt;53 -->
<g id="edge31" class="edge">
<title>35&#45;&gt;53</title>
<path fill="none" stroke="#0000ff" d="M2377.73,-88.21C2337.95,-74 2279.41,-53.1 2237.09,-37.98"/>
<polygon fill="#0000ff" stroke="#0000ff" points="2238.1,-34.63 2227.51,-34.56 2235.75,-41.22 2238.1,-34.63"/>
<text text-anchor="middle" x="2362.44" y="-57.8" font-family="Times,serif" font-size="14.00">yes, missing</text>
</g>
<!-- 54 -->
<g id="node33" class="node">
<title>54</title>
<ellipse fill="none" stroke="black" cx="2421.94" cy="-18" rx="111.58" ry="18"/>
<text text-anchor="middle" x="2421.94" y="-14.3" font-family="Times,serif" font-size="14.00">leaf=&#45;0.00844377931</text>
</g>
<!-- 35&#45;&gt;54 -->
<g id="edge32" class="edge">
<title>35&#45;&gt;54</title>
<path fill="none" stroke="#ff0000" d="M2421.94,-86.8C2421.94,-75.16 2421.94,-59.55 2421.94,-46.24"/>
<polygon fill="#ff0000" stroke="#ff0000" points="2425.44,-46.18 2421.94,-36.18 2418.44,-46.18 2425.44,-46.18"/>
<text text-anchor="middle" x="2430.94" y="-57.8" font-family="Times,serif" font-size="14.00">no</text>
</g>
<!-- 55 -->
<g id="node34" class="node">
<title>55</title>
<ellipse fill="none" stroke="black" cx="2663.94" cy="-18" rx="111.58" ry="18"/>
<text text-anchor="middle" x="2663.94" y="-14.3" font-family="Times,serif" font-size="14.00">leaf=&#45;0.00488084974</text>
</g>
<!-- 36&#45;&gt;55 -->
<g id="edge33" class="edge">
<title>36&#45;&gt;55</title>
<path fill="none" stroke="#ff0000" d="M2769.06,-87.21C2748.78,-74.05 2720.4,-55.63 2698.23,-41.25"/>
<polygon fill="#ff0000" stroke="#ff0000" points="2700.06,-38.27 2689.77,-35.76 2696.25,-44.14 2700.06,-38.27"/>
<text text-anchor="middle" x="2750.44" y="-57.8" font-family="Times,serif" font-size="14.00">yes</text>
</g>
<!-- 56 -->
<g id="node35" class="node">
<title>56</title>
<ellipse fill="none" stroke="black" cx="2899.94" cy="-18" rx="105.88" ry="18"/>
<text text-anchor="middle" x="2899.94" y="-14.3" font-family="Times,serif" font-size="14.00">leaf=&#45;0.0157099906</text>
</g>
<!-- 36&#45;&gt;56 -->
<g id="edge34" class="edge">
<title>36&#45;&gt;56</title>
<path fill="none" stroke="#0000ff" d="M2815.69,-87.21C2831.5,-74.4 2853.49,-56.61 2871.03,-42.4"/>
<polygon fill="#0000ff" stroke="#0000ff" points="2873.67,-44.77 2879.24,-35.76 2869.26,-39.33 2873.67,-44.77"/>
<text text-anchor="middle" x="2894.94" y="-57.8" font-family="Times,serif" font-size="14.00">no, missing</text>
</g>
<!-- 57 -->
<g id="node38" class="node">
<title>57</title>
<ellipse fill="none" stroke="black" cx="3129.94" cy="-18" rx="105.88" ry="18"/>
<text text-anchor="middle" x="3129.94" y="-14.3" font-family="Times,serif" font-size="14.00">leaf=&#45;0.0113724433</text>
</g>
<!-- 37&#45;&gt;57 -->
<g id="edge37" class="edge">
<title>37&#45;&gt;57</title>
<path fill="none" stroke="#0000ff" d="M3271.61,-87.81C3243.39,-74.11 3202.78,-54.38 3172.27,-39.56"/>
<polygon fill="#0000ff" stroke="#0000ff" points="3173.67,-36.35 3163.14,-35.13 3170.61,-42.65 3173.67,-36.35"/>
<text text-anchor="middle" x="3272.44" y="-57.8" font-family="Times,serif" font-size="14.00">yes, missing</text>
</g>
<!-- 58 -->
<g id="node39" class="node">
<title>58</title>
<ellipse fill="none" stroke="black" cx="3365.94" cy="-18" rx="111.58" ry="18"/>
<text text-anchor="middle" x="3365.94" y="-14.3" font-family="Times,serif" font-size="14.00">leaf=&#45;0.00105624541</text>
</g>
<!-- 37&#45;&gt;58 -->
<g id="edge38" class="edge">
<title>37&#45;&gt;58</title>
<path fill="none" stroke="#ff0000" d="M3317.28,-86.8C3325.97,-74.7 3337.73,-58.3 3347.52,-44.67"/>
<polygon fill="#ff0000" stroke="#ff0000" points="3350.63,-46.34 3353.61,-36.18 3344.94,-42.26 3350.63,-46.34"/>
<text text-anchor="middle" x="3348.94" y="-57.8" font-family="Times,serif" font-size="14.00">no</text>
</g>
<!-- 59 -->
<g id="node40" class="node">
<title>59</title>
<ellipse fill="none" stroke="black" cx="3603.94" cy="-18" rx="108.58" ry="18"/>
<text text-anchor="middle" x="3603.94" y="-14.3" font-family="Times,serif" font-size="14.00">leaf=0.00920458045</text>
</g>
<!-- 38&#45;&gt;59 -->
<g id="edge39" class="edge">
<title>38&#45;&gt;59</title>
<path fill="none" stroke="#ff0000" d="M3542.96,-87.21C3554.02,-74.83 3569.25,-57.8 3581.72,-43.85"/>
<polygon fill="#ff0000" stroke="#ff0000" points="3584.64,-45.84 3588.7,-36.05 3579.42,-41.17 3584.64,-45.84"/>
<text text-anchor="middle" x="3583.44" y="-57.8" font-family="Times,serif" font-size="14.00">yes</text>
</g>
<!-- 60 -->
<g id="node41" class="node">
<title>60</title>
<ellipse fill="none" stroke="black" cx="3841.94" cy="-18" rx="111.28" ry="18"/>
<text text-anchor="middle" x="3841.94" y="-14.3" font-family="Times,serif" font-size="14.00">leaf=8.85640038e&#45;05</text>
</g>
<!-- 38&#45;&gt;60 -->
<g id="edge40" class="edge">
<title>38&#45;&gt;60</title>
<path fill="none" stroke="#0000ff" d="M3580.5,-89.77C3634.71,-75.1 3719.34,-52.19 3777.54,-36.43"/>
<polygon fill="#0000ff" stroke="#0000ff" points="3778.63,-39.76 3787.37,-33.77 3776.8,-33.01 3778.63,-39.76"/>
<text text-anchor="middle" x="3744.94" y="-57.8" font-family="Times,serif" font-size="14.00">no, missing</text>
</g>
<!-- 39 -->
<g id="node44" class="node">
<title>39</title>
<ellipse fill="none" stroke="black" cx="3753.94" cy="-105" rx="111.28" ry="18"/>
<text text-anchor="middle" x="3753.94" y="-101.3" font-family="Times,serif" font-size="14.00">leaf=8.85640038e&#45;05</text>
</g>
<!-- 21&#45;&gt;39 -->
<g id="edge43" class="edge">
<title>21&#45;&gt;39</title>
<path fill="none" stroke="#ff0000" d="M3734,-173.8C3737.46,-162.05 3742.11,-146.24 3746.05,-132.84"/>
<polygon fill="#ff0000" stroke="#ff0000" points="3749.43,-133.76 3748.89,-123.18 3742.71,-131.78 3749.43,-133.76"/>
<text text-anchor="middle" x="3755.44" y="-144.8" font-family="Times,serif" font-size="14.00">yes</text>
</g>
<!-- 40 -->
<g id="node45" class="node">
<title>40</title>
<ellipse fill="none" stroke="black" cx="3988.94" cy="-105" rx="105.88" ry="18"/>
<text text-anchor="middle" x="3988.94" y="-101.3" font-family="Times,serif" font-size="14.00">leaf=&#45;0.0102892751</text>
</g>
<!-- 21&#45;&gt;40 -->
<g id="edge44" class="edge">
<title>21&#45;&gt;40</title>
<path fill="none" stroke="#0000ff" d="M3777.54,-175.11C3821.59,-160.71 3886.5,-139.49 3932.76,-124.37"/>
<polygon fill="#0000ff" stroke="#0000ff" points="3933.91,-127.67 3942.33,-121.24 3931.74,-121.02 3933.91,-127.67"/>
<text text-anchor="middle" x="3915.94" y="-144.8" font-family="Times,serif" font-size="14.00">no, missing</text>
</g>
<!-- 11 -->
<g id="node48" class="node">
<title>11</title>
<ellipse fill="none" stroke="black" cx="4246.94" cy="-279" rx="125.38" ry="18"/>
<text text-anchor="middle" x="4246.94" y="-275.3" font-family="Times,serif" font-size="14.00">phosphate&lt;&#45;1.31003988</text>
</g>
<!-- 5&#45;&gt;11 -->
<g id="edge47" class="edge">
<title>5&#45;&gt;11</title>
<path fill="none" stroke="#ff0000" d="M4396.33,-349.01C4366.68,-335.31 4323.77,-315.49 4291.54,-300.6"/>
<polygon fill="#ff0000" stroke="#ff0000" points="4292.88,-297.37 4282.33,-296.35 4289.94,-303.72 4292.88,-297.37"/>
<text text-anchor="middle" x="4363.44" y="-318.8" font-family="Times,serif" font-size="14.00">yes</text>
</g>
<!-- 12 -->
<g id="node49" class="node">
<title>12</title>
<ellipse fill="none" stroke="black" cx="4492.94" cy="-279" rx="102.88" ry="18"/>
<text text-anchor="middle" x="4492.94" y="-275.3" font-family="Times,serif" font-size="14.00">leaf=0.0120950099</text>
</g>
<!-- 5&#45;&gt;12 -->
<g id="edge48" class="edge">
<title>5&#45;&gt;12</title>
<path fill="none" stroke="#0000ff" d="M4443.49,-347.8C4452.45,-335.51 4464.66,-318.77 4474.7,-305.01"/>
<polygon fill="#0000ff" stroke="#0000ff" points="4477.56,-307.03 4480.62,-296.89 4471.9,-302.9 4477.56,-307.03"/>
<text text-anchor="middle" x="4506.94" y="-318.8" font-family="Times,serif" font-size="14.00">no, missing</text>
</g>
<!-- 13 -->
<g id="node52" class="node">
<title>13</title>
<ellipse fill="none" stroke="black" cx="4775.94" cy="-279" rx="99.38" ry="18"/>
<text text-anchor="middle" x="4775.94" y="-275.3" font-family="Times,serif" font-size="14.00">mch&lt;0.991514862</text>
</g>
<!-- 6&#45;&gt;13 -->
<g id="edge51" class="edge">
<title>6&#45;&gt;13</title>
<path fill="none" stroke="#ff0000" d="M4775.94,-347.8C4775.94,-336.16 4775.94,-320.55 4775.94,-307.24"/>
<polygon fill="#ff0000" stroke="#ff0000" points="4779.44,-307.18 4775.94,-297.18 4772.44,-307.18 4779.44,-307.18"/>
<text text-anchor="middle" x="4788.44" y="-318.8" font-family="Times,serif" font-size="14.00">yes</text>
</g>
<!-- 14 -->
<g id="node53" class="node">
<title>14</title>
<ellipse fill="none" stroke="black" cx="5159.94" cy="-279" rx="107.78" ry="18"/>
<text text-anchor="middle" x="5159.94" y="-275.3" font-family="Times,serif" font-size="14.00">sodium&lt;1.70903575</text>
</g>
<!-- 6&#45;&gt;14 -->
<g id="edge52" class="edge">
<title>6&#45;&gt;14</title>
<path fill="none" stroke="#0000ff" d="M4837.21,-351.44C4905.36,-336.35 5015.37,-312 5087.67,-296"/>
<polygon fill="#0000ff" stroke="#0000ff" points="5088.61,-299.37 5097.61,-293.8 5087.09,-292.54 5088.61,-299.37"/>
<text text-anchor="middle" x="5031.94" y="-318.8" font-family="Times,serif" font-size="14.00">no, missing</text>
</g>
<!-- 23 -->
<g id="node50" class="node">
<title>23</title>
<ellipse fill="none" stroke="black" cx="4215.94" cy="-192" rx="108.58" ry="18"/>
<text text-anchor="middle" x="4215.94" y="-188.3" font-family="Times,serif" font-size="14.00">leaf=0.00460862694</text>
</g>
<!-- 11&#45;&gt;23 -->
<g id="edge49" class="edge">
<title>11&#45;&gt;23</title>
<path fill="none" stroke="#ff0000" d="M4240.67,-260.8C4236.38,-249.05 4230.62,-233.24 4225.73,-219.84"/>
<polygon fill="#ff0000" stroke="#ff0000" points="4228.92,-218.37 4222.2,-210.18 4222.34,-220.77 4228.92,-218.37"/>
<text text-anchor="middle" x="4246.44" y="-231.8" font-family="Times,serif" font-size="14.00">yes</text>
</g>
<!-- 24 -->
<g id="node51" class="node">
<title>24</title>
<ellipse fill="none" stroke="black" cx="4447.94" cy="-192" rx="105.88" ry="18"/>
<text text-anchor="middle" x="4447.94" y="-188.3" font-family="Times,serif" font-size="14.00">leaf=&#45;0.0119262394</text>
</g>
<!-- 11&#45;&gt;24 -->
<g id="edge50" class="edge">
<title>11&#45;&gt;24</title>
<path fill="none" stroke="#0000ff" d="M4285.22,-261.81C4318.12,-247.9 4365.69,-227.78 4400.9,-212.89"/>
<polygon fill="#0000ff" stroke="#0000ff" points="4402.64,-215.96 4410.48,-208.84 4399.91,-209.51 4402.64,-215.96"/>
<text text-anchor="middle" x="4400.94" y="-231.8" font-family="Times,serif" font-size="14.00">no, missing</text>
</g>
<!-- 25 -->
<g id="node54" class="node">
<title>25</title>
<ellipse fill="none" stroke="black" cx="4680.94" cy="-192" rx="109.38" ry="18"/>
<text text-anchor="middle" x="4680.94" y="-188.3" font-family="Times,serif" font-size="14.00">oasis&lt;0.0148451114</text>
</g>
<!-- 13&#45;&gt;25 -->
<g id="edge53" class="edge">
<title>13&#45;&gt;25</title>
<path fill="none" stroke="#0000ff" d="M4757.17,-261.21C4742.99,-248.52 4723.33,-230.93 4707.53,-216.79"/>
<polygon fill="#0000ff" stroke="#0000ff" points="4709.46,-213.82 4699.67,-209.76 4704.79,-219.03 4709.46,-213.82"/>
<text text-anchor="middle" x="4779.44" y="-231.8" font-family="Times,serif" font-size="14.00">yes, missing</text>
</g>
<!-- 26 -->
<g id="node55" class="node">
<title>26</title>
<ellipse fill="none" stroke="black" cx="4919.94" cy="-192" rx="111.58" ry="18"/>
<text text-anchor="middle" x="4919.94" y="-188.3" font-family="Times,serif" font-size="14.00">leaf=&#45;0.00893629249</text>
</g>
<!-- 13&#45;&gt;26 -->
<g id="edge54" class="edge">
<title>13&#45;&gt;26</title>
<path fill="none" stroke="#ff0000" d="M4803.71,-261.61C4826.27,-248.29 4858.3,-229.39 4883.02,-214.79"/>
<polygon fill="#ff0000" stroke="#ff0000" points="4884.94,-217.73 4891.77,-209.63 4881.38,-211.7 4884.94,-217.73"/>
<text text-anchor="middle" x="4865.94" y="-231.8" font-family="Times,serif" font-size="14.00">no</text>
</g>
<!-- 27 -->
<g id="node62" class="node">
<title>27</title>
<ellipse fill="none" stroke="black" cx="5159.94" cy="-192" rx="109.68" ry="18"/>
<text text-anchor="middle" x="5159.94" y="-188.3" font-family="Times,serif" font-size="14.00">calcium&lt;1.96363127</text>
</g>
<!-- 14&#45;&gt;27 -->
<g id="edge61" class="edge">
<title>14&#45;&gt;27</title>
<path fill="none" stroke="#0000ff" d="M5159.94,-260.8C5159.94,-249.16 5159.94,-233.55 5159.94,-220.24"/>
<polygon fill="#0000ff" stroke="#0000ff" points="5163.44,-220.18 5159.94,-210.18 5156.44,-220.18 5163.44,-220.18"/>
<text text-anchor="middle" x="5204.44" y="-231.8" font-family="Times,serif" font-size="14.00">yes, missing</text>
</g>
<!-- 28 -->
<g id="node63" class="node">
<title>28</title>
<ellipse fill="none" stroke="black" cx="5395.94" cy="-192" rx="108.58" ry="18"/>
<text text-anchor="middle" x="5395.94" y="-188.3" font-family="Times,serif" font-size="14.00">leaf=0.00140667392</text>
</g>
<!-- 14&#45;&gt;28 -->
<g id="edge62" class="edge">
<title>14&#45;&gt;28</title>
<path fill="none" stroke="#ff0000" d="M5203.23,-262.41C5242.61,-248.23 5300.85,-227.25 5342.99,-212.07"/>
<polygon fill="#ff0000" stroke="#ff0000" points="5344.31,-215.32 5352.53,-208.64 5341.94,-208.73 5344.31,-215.32"/>
<text text-anchor="middle" x="5301.94" y="-231.8" font-family="Times,serif" font-size="14.00">no</text>
</g>
<!-- 41 -->
<g id="node56" class="node">
<title>41</title>
<ellipse fill="none" stroke="black" cx="4444.94" cy="-105" rx="130.78" ry="18"/>
<text text-anchor="middle" x="4444.94" y="-101.3" font-family="Times,serif" font-size="14.00">potassium&lt;&#45;0.164333552</text>
</g>
<!-- 25&#45;&gt;41 -->
<g id="edge55" class="edge">
<title>25&#45;&gt;41</title>
<path fill="none" stroke="#ff0000" d="M4637.65,-175.41C4598.64,-161.36 4541.12,-140.64 4499.08,-125.5"/>
<polygon fill="#ff0000" stroke="#ff0000" points="4500.15,-122.16 4489.56,-122.07 4497.78,-128.75 4500.15,-122.16"/>
<text text-anchor="middle" x="4590.44" y="-144.8" font-family="Times,serif" font-size="14.00">yes</text>
</g>
<!-- 42 -->
<g id="node57" class="node">
<title>42</title>
<ellipse fill="none" stroke="black" cx="4695.94" cy="-105" rx="102.88" ry="18"/>
<text text-anchor="middle" x="4695.94" y="-101.3" font-family="Times,serif" font-size="14.00">mch&lt;&#45;0.129417732</text>
</g>
<!-- 25&#45;&gt;42 -->
<g id="edge56" class="edge">
<title>25&#45;&gt;42</title>
<path fill="none" stroke="#0000ff" d="M4683.98,-173.8C4686.03,-162.16 4688.79,-146.55 4691.13,-133.24"/>
<polygon fill="#0000ff" stroke="#0000ff" points="4694.62,-133.63 4692.91,-123.18 4687.72,-132.41 4694.62,-133.63"/>
<text text-anchor="middle" x="4730.94" y="-144.8" font-family="Times,serif" font-size="14.00">no, missing</text>
</g>
<!-- 61 -->
<g id="node58" class="node">
<title>61</title>
<ellipse fill="none" stroke="black" cx="4215.94" cy="-18" rx="108.58" ry="18"/>
<text text-anchor="middle" x="4215.94" y="-14.3" font-family="Times,serif" font-size="14.00">leaf=0.00631235773</text>
</g>
<!-- 41&#45;&gt;61 -->
<g id="edge57" class="edge">
<title>41&#45;&gt;61</title>
<path fill="none" stroke="#ff0000" d="M4401.6,-87.91C4363.54,-73.79 4308.12,-53.21 4267.74,-38.23"/>
<polygon fill="#ff0000" stroke="#ff0000" points="4268.92,-34.93 4258.33,-34.73 4266.49,-41.5 4268.92,-34.93"/>
<text text-anchor="middle" x="4357.44" y="-57.8" font-family="Times,serif" font-size="14.00">yes</text>
</g>
<!-- 62 -->
<g id="node59" class="node">
<title>62</title>
<ellipse fill="none" stroke="black" cx="4444.94" cy="-18" rx="102.88" ry="18"/>
<text text-anchor="middle" x="4444.94" y="-14.3" font-family="Times,serif" font-size="14.00">leaf=0.0180146825</text>
</g>
<!-- 41&#45;&gt;62 -->
<g id="edge58" class="edge">
<title>41&#45;&gt;62</title>
<path fill="none" stroke="#0000ff" d="M4444.94,-86.8C4444.94,-75.16 4444.94,-59.55 4444.94,-46.24"/>
<polygon fill="#0000ff" stroke="#0000ff" points="4448.44,-46.18 4444.94,-36.18 4441.44,-46.18 4448.44,-46.18"/>
<text text-anchor="middle" x="4485.94" y="-57.8" font-family="Times,serif" font-size="14.00">no, missing</text>
</g>
<!-- 63 -->
<g id="node60" class="node">
<title>63</title>
<ellipse fill="none" stroke="black" cx="4677.94" cy="-18" rx="108.58" ry="18"/>
<text text-anchor="middle" x="4677.94" y="-14.3" font-family="Times,serif" font-size="14.00">leaf=0.00920458045</text>
</g>
<!-- 42&#45;&gt;63 -->
<g id="edge59" class="edge">
<title>42&#45;&gt;63</title>
<path fill="none" stroke="#ff0000" d="M4692.3,-86.8C4689.83,-75.16 4686.53,-59.55 4683.71,-46.24"/>
<polygon fill="#ff0000" stroke="#ff0000" points="4687.07,-45.23 4681.58,-36.18 4680.23,-46.68 4687.07,-45.23"/>
<text text-anchor="middle" x="4701.44" y="-57.8" font-family="Times,serif" font-size="14.00">yes</text>
</g>
<!-- 64 -->
<g id="node61" class="node">
<title>64</title>
<ellipse fill="none" stroke="black" cx="4915.94" cy="-18" rx="111.58" ry="18"/>
<text text-anchor="middle" x="4915.94" y="-14.3" font-family="Times,serif" font-size="14.00">leaf=&#45;0.00805636682</text>
</g>
<!-- 42&#45;&gt;64 -->
<g id="edge60" class="edge">
<title>42&#45;&gt;64</title>
<path fill="none" stroke="#0000ff" d="M4736.29,-88.41C4772.66,-74.36 4826.27,-53.64 4865.47,-38.5"/>
<polygon fill="#0000ff" stroke="#0000ff" points="4867.03,-41.65 4875.1,-34.78 4864.51,-35.12 4867.03,-41.65"/>
<text text-anchor="middle" x="4860.94" y="-57.8" font-family="Times,serif" font-size="14.00">no, missing</text>
</g>
<!-- 43 -->
<g id="node64" class="node">
<title>43</title>
<ellipse fill="none" stroke="black" cx="5157.94" cy="-105" rx="85.59" ry="18"/>
<text text-anchor="middle" x="5157.94" y="-101.3" font-family="Times,serif" font-size="14.00">bg&lt;2.12344885</text>
</g>
<!-- 27&#45;&gt;43 -->
<g id="edge63" class="edge">
<title>27&#45;&gt;43</title>
<path fill="none" stroke="#0000ff" d="M5159.54,-173.8C5159.26,-162.16 5158.89,-146.55 5158.58,-133.24"/>
<polygon fill="#0000ff" stroke="#0000ff" points="5162.08,-133.09 5158.34,-123.18 5155.08,-133.26 5162.08,-133.09"/>
<text text-anchor="middle" x="5204.44" y="-144.8" font-family="Times,serif" font-size="14.00">yes, missing</text>
</g>
<!-- 44 -->
<g id="node65" class="node">
<title>44</title>
<ellipse fill="none" stroke="black" cx="5369.94" cy="-105" rx="108.58" ry="18"/>
<text text-anchor="middle" x="5369.94" y="-101.3" font-family="Times,serif" font-size="14.00">leaf=0.00464657228</text>
</g>
<!-- 27&#45;&gt;44 -->
<g id="edge64" class="edge">
<title>27&#45;&gt;44</title>
<path fill="none" stroke="#ff0000" d="M5202.69,-175.36C5218.53,-169.45 5236.61,-162.56 5252.94,-156 5276.6,-146.5 5302.71,-135.4 5324.25,-126.08"/>
<polygon fill="#ff0000" stroke="#ff0000" points="5325.71,-129.26 5333.49,-122.07 5322.92,-122.84 5325.71,-129.26"/>
<text text-anchor="middle" x="5297.94" y="-144.8" font-family="Times,serif" font-size="14.00">no</text>
</g>
<!-- 65 -->
<g id="node66" class="node">
<title>65</title>
<ellipse fill="none" stroke="black" cx="5149.94" cy="-18" rx="102.88" ry="18"/>
<text text-anchor="middle" x="5149.94" y="-14.3" font-family="Times,serif" font-size="14.00">leaf=0.0214044712</text>
</g>
<!-- 43&#45;&gt;65 -->
<g id="edge65" class="edge">
<title>43&#45;&gt;65</title>
<path fill="none" stroke="#0000ff" d="M5156.32,-86.8C5155.23,-75.16 5153.76,-59.55 5152.5,-46.24"/>
<polygon fill="#0000ff" stroke="#0000ff" points="5155.98,-45.8 5151.56,-36.18 5149.01,-46.46 5155.98,-45.8"/>
<text text-anchor="middle" x="5199.44" y="-57.8" font-family="Times,serif" font-size="14.00">yes, missing</text>
</g>
<!-- 66 -->
<g id="node67" class="node">
<title>66</title>
<ellipse fill="none" stroke="black" cx="5378.94" cy="-18" rx="108.58" ry="18"/>
<text text-anchor="middle" x="5378.94" y="-14.3" font-family="Times,serif" font-size="14.00">leaf=0.00631235773</text>
</g>
<!-- 43&#45;&gt;66 -->
<g id="edge66" class="edge">
<title>43&#45;&gt;66</title>
<path fill="none" stroke="#ff0000" d="M5197.2,-88.9C5233.75,-74.84 5288.44,-53.81 5328.27,-38.49"/>
<polygon fill="#ff0000" stroke="#ff0000" points="5329.73,-41.68 5337.8,-34.82 5327.21,-35.15 5329.73,-41.68"/>
<text text-anchor="middle" x="5290.94" y="-57.8" font-family="Times,serif" font-size="14.00">no</text>
</g>
</g>
</svg>
